# xmcd
#
# Track frame offsets: 
#        150
#        20623
#        43328
#        64261
#        87410
#        108534
#        129898
#        150965
#        176706
#        195258
#        217615
#        235004
#        258751
#
# Disc length: 3789 seconds
#
# Revision: 0
# Processed by: cddbd v1.5.2PL0 Copyright (c) Steve Scherf et al.
# Submitted via: ExactAudioCopyFreeDBPlugin 1.0
#
DISCID=a00ecb0d
DTITLE=白玛多吉 - DTSES云上西藏
DYEAR=2010
DGENRE=DTSES
TTITLE0=姑娘我爱你
TTITLE1=为你等待
TTITLE2=情人吉祥
TTITLE3=走天涯
TTITLE4=天上西藏
TTITLE5=我要去西藏
TTITLE6=哈达
TTITLE7=阿爸
TTITLE8=青藏女孩
TTITLE9=慈祥的母亲
TTITLE10=格桑拉
TTITLE11=香格里拉
TTITLE12=回到拉萨
EXTD=
EXTT0=
EXTT1=
EXTT2=
EXTT3=
EXTT4=
EXTT5=
EXTT6=
EXTT7=
EXTT8=
EXTT9=
EXTT10=
EXTT11=
EXTT12=
PLAYORDER=
